HIERARCHY
ROOT locator2
{
  OFFSET 53.6172 30.1899 0.816905
  CHANNELS 6 Xposition Yposition Zposition Zrotation Xrotation Yrotation
  JOINT koshi
  {
    OFFSET 0 0 0
    CHANNELS 6 Xposition Yposition Zposition Zrotation Xrotation Yrotation
    JOINT sippo01
    {
      OFFSET 0 42.8363 -0.548134
      CHANNELS 6 Xposition Yposition Zposition Zrotation Xrotation Yrotation
      JOINT sippo02
      {
        OFFSET 0 44.0461 -3.28882
        CHANNELS 6 Xposition Yposition Zposition Zrotation Xrotation Yrotation
        JOINT sippo03
        {
          OFFSET 0 34.1929 -2.46662
          CHANNELS 6 Xposition Yposition Zposition Zrotation Xrotation Yrotation
          JOINT sippo04
          {
            OFFSET 0 30.0959 -1.75404
            CHANNELS 6 Xposition Yposition Zposition Zrotation Xrotation Yrotation
            JOINT sippo05
            {
              OFFSET 0 28.3637 -1.75404
              CHANNELS 6 Xposition Yposition Zposition Zrotation Xrotation Yrotation
              JOINT sippo06
              {
                OFFSET 0 31.6071 -3.2043
                CHANNELS 6 Xposition Yposition Zposition Zrotation Xrotation Yrotation
                End Site
                {
                  OFFSET 0 0 0
                }
              }
            }
          }
        }
      }
    }
    JOINT R_momo
    {
      OFFSET -27.891 13.5892 3.92723
      CHANNELS 6 Xposition Yposition Zposition Zrotation Xrotation Yrotation
      JOINT R_hiza
      {
        OFFSET 0 28.01 1.8232
        CHANNELS 6 Xposition Yposition Zposition Zrotation Xrotation Yrotation
        JOINT R_ashi
        {
          OFFSET 0 24.3992 -2.49174
          CHANNELS 6 Xposition Yposition Zposition Zrotation Xrotation Yrotation
          End Site
          {
            OFFSET 0 0 0
          }
        }
      }
    }
    JOINT L_momo
    {
      OFFSET 27.891 13.5892 3.92714
      CHANNELS 6 Xposition Yposition Zposition Zrotation Xrotation Yrotation
      JOINT L_hiza
      {
        OFFSET 0 28.0098 1.82319
        CHANNELS 6 Xposition Yposition Zposition Zrotation Xrotation Yrotation
        JOINT L_ashi
        {
          OFFSET 0 24.3992 -2.49171
          CHANNELS 6 Xposition Yposition Zposition Zrotation Xrotation Yrotation
          End Site
          {
            OFFSET 0 0 0
          }
        }
      }
    }
  }
  JOINT hara
  {
    OFFSET 0 2.15392 0
    CHANNELS 6 Xposition Yposition Zposition Zrotation Xrotation Yrotation
    JOINT mune
    {
      OFFSET 0 62.0609 0.472494
      CHANNELS 6 Xposition Yposition Zposition Zrotation Xrotation Yrotation
      JOINT R_kata
      {
        OFFSET 22.6695 9.65301 -5.3622
        CHANNELS 6 Xposition Yposition Zposition Zrotation Xrotation Yrotation
        JOINT R_hiji
        {
          OFFSET 0 25.813 1.69098
          CHANNELS 6 Xposition Yposition Zposition Zrotation Xrotation Yrotation
          JOINT R_te
          {
            OFFSET 0 28.5636 -0.966307
            CHANNELS 6 Xposition Yposition Zposition Zrotation Xrotation Yrotation
            End Site
            {
              OFFSET 0 0 0
            }
          }
        }
      }
      JOINT L_kata
      {
        OFFSET -22.6695 9.65298 -5.3622
        CHANNELS 6 Xposition Yposition Zposition Zrotation Xrotation Yrotation
        JOINT L_hiji
        {
          OFFSET 0 25.813 1.69102
          CHANNELS 6 Xposition Yposition Zposition Zrotation Xrotation Yrotation
          JOINT L_te
          {
            OFFSET 0 28.5636 -0.966295
            CHANNELS 6 Xposition Yposition Zposition Zrotation Xrotation Yrotation
            End Site
            {
              OFFSET 0 0 0
            }
          }
        }
      }
      JOINT kubi
      {
        OFFSET 0 23.1438 -0.944988
        CHANNELS 6 Xposition Yposition Zposition Zrotation Xrotation Yrotation
        JOINT atama
        {
          OFFSET 0 20.8625 4.12737
          CHANNELS 6 Xposition Yposition Zposition Zrotation Xrotation Yrotation
          JOINT ago
          {
            OFFSET 0 7.552 -7.58201
            CHANNELS 6 Xposition Yposition Zposition Zrotation Xrotation Yrotation
            End Site
            {
              OFFSET 0 0 0
            }
          }
        }
      }
    }
  }
}
MOTION
Frames:	4
Frame Time:	0.0333333
0.160255 22.1232 -0.0662258 -90 -3.50835e-015 -90 0 0 0 -174.643 1.16761 0.300989 1.19209e-007 42.8363 -0.548136 2.38015 -6.14303 3.45633 6.70839e-007 44.0461 -3.28882 -10.3093 4.16384 -3.82141 1.90651e-006 34.1929 -2.46662 -17.0266 0.630722 -1.62288 -3.9526e-006 30.0959 -1.75404 -14.0344 3.68727 -1.90942 1.50239e-005 28.3637 -1.75404 8.37501 -0.37849 5.6011 -2.6462e-009 31.6072 -3.20429 5.25659 -1.98519 -6.97019 -27.891 13.5892 3.92723 126.834 -26.7565 -69.4942 -3.65319e-006 28.01 1.8232 162.228 -89.2461 159.091 -3.81093e-006 24.3992 -2.49173 -135.816 56.9488 -157.601 27.891 13.5892 3.92714 -108.146 -30.286 84.4065 -8.93178e-008 28.0098 1.82319 1.87768 -76.5945 -2.12232 -3.81486e-006 24.3992 -2.49173 127.159 62.2744 156.736 6.09085e-007 2.15392 7.10543e-015 -2.01135 -1.49059 -0.147683 2.16067e-007 62.0609 0.472498 -7.08666e-008 -9.64729e-011 2.25549e-009 22.6695 9.65299 -5.3622 -155.574 7.28699 56.5086 -7.15971e-007 25.813 1.69098 179.88 -65.3779 179.624 1.18459e-005 28.5636 -0.966314 32.3163 15.6069 -94.4066 -22.6695 9.65298 -5.3622 135.058 3.42475 -61.0751 1.02003e-006 25.813 1.69101 -179.867 -73.8225 -179.521 -4.47094e-006 28.5636 -0.966302 -32.7591 34.4155 99.4392 -5.58799e-008 23.1438 -0.944992 12.1937 0.58111 -29.9044 9.64242e-008 20.8625 4.12737 7.12832 11.3579 -29.0492 -7.51963e-006 7.55201 -7.582 1.93267e-005 -23.0942 8.93914e-006 
0.159578 22.1235 -0.0678725 -90 -3.50835e-015 -90 0 0 0 -174.644 1.21016 0.337674 1.19209e-007 42.8363 -0.548136 2.74874 -6.01931 4.16181 6.60037e-007 44.0461 -3.28882 -10.2139 4.57428 -3.17488 1.89516e-006 34.1929 -2.46662 -16.517 1.48998 -1.01958 -4.01474e-006 30.0959 -1.75404 -14.5226 4.54207 -2.77573 1.5139e-005 28.3637 -1.75404 10.0448 0.194331 5.411 -6.56267e-007 31.6072 -3.20429 6.09353 -2.89604 -7.73079 -27.891 13.5892 3.92723 126.801 -26.6945 -69.4986 -3.65522e-006 28.01 1.8232 162.197 -89.2457 159.059 -3.81004e-006 24.3992 -2.49173 -135.816 56.9485 -157.601 27.891 13.5892 3.92714 -108.146 -30.287 84.4073 -8.93508e-008 28.0098 1.82319 1.87832 -76.5944 -2.12203 -3.81484e-006 24.3992 -2.49173 127.159 62.2744 156.736 6.09085e-007 2.15392 7.10543e-015 -2.01154 -1.54562 -0.151285 2.16067e-007 62.0609 0.472498 -7.08666e-008 -9.64727e-011 2.25549e-009 22.6695 9.65299 -5.3622 -155.574 7.28699 56.5086 -7.15971e-007 25.813 1.69098 179.88 -65.4326 179.611 1.18457e-005 28.5636 -0.966314 32.2951 15.6121 -94.3491 -22.6695 9.65298 -5.3622 135.058 3.42475 -61.0751 1.02003e-006 25.813 1.69101 -179.878 -73.8674 -179.498 -4.47401e-006 28.5636 -0.966302 -32.7591 34.4155 99.4392 -5.58799e-008 23.1438 -0.944992 12.1937 0.581111 -29.9044 9.64244e-008 20.8625 4.12737 7.12816 11.358 -29.0492 -7.51962e-006 7.55201 -7.582 -6.84328e-006 -22.9885 6.33679e-006 
0.158915 22.1146 -0.0694872 -90 -3.50835e-015 -90 0 0 0 -174.645 1.19381 0.390641 1.19209e-007 42.8363 -0.548136 3.10959 -5.89783 4.85185 6.49758e-007 44.0461 -3.28882 -10.1208 4.97673 -2.54263 1.8854e-006 34.1929 -2.46662 -16.0197 2.33723 -1.28816 -4.06921e-006 30.0959 -1.75404 -13.288 5.41718 -3.77249 1.4804e-005 28.3637 -1.75404 11.6822 0.751339 5.33868 -1.92535e-006 31.6072 -3.20429 6.91703 -3.78676 -8.4512 -27.891 13.5892 3.92723 126.694 -26.5801 -69.6612 -3.65737e-006 28.01 1.8232 159.119 -89.2053 155.871 -3.81512e-006 24.3992 -2.49173 -135.827 56.908 -157.63 27.891 13.5892 3.92714 -108.104 -30.3866 84.4927 -9.26589e-008 28.0098 1.82319 1.93563 -76.5773 -2.09897 -3.8133e-006 24.3992 -2.49173 127.159 62.2744 156.736 6.09085e-007 2.15392 7.10543e-015 -2.01154 -1.54563 -0.151285 2.16067e-007 62.0609 0.472498 -7.08666e-008 -9.64717e-011 2.25549e-009 22.6695 9.65299 -5.3622 -155.574 7.28699 56.5086 -7.15971e-007 25.813 1.69098 179.879 -65.4585 179.581 1.18453e-005 28.5636 -0.966314 32.2951 15.6121 -94.3491 -22.6695 9.65298 -5.3622 135.058 3.42475 -61.0751 1.02003e-006 25.813 1.69101 -179.878 -73.8674 -179.498 -4.47401e-006 28.5636 -0.966302 -32.7591 34.4155 99.4392 -5.58799e-008 23.1438 -0.944992 12.1937 0.581111 -29.9044 9.64244e-008 20.8625 4.12737 7.11299 11.3662 -29.0495 -7.51922e-006 7.55201 -7.582 -6.85578e-006 -22.8848 6.35002e-006 
0.158245 22.1055 -0.0711179 -90 -3.50835e-015 -90 0 0 0 -174.645 1.15538 0.381126 1.19209e-007 42.8363 -0.548136 3.47463 -5.77471 5.54872 6.39669e-007 44.0461 -3.28882 -10.0271 5.38366 -1.90501 1.87692e-006 34.1929 -2.46662 -15.521 3.19634 -1.57474 -4.12162e-006 30.0959 -1.75404 -12.0398 6.30743 -4.81763 1.44585e-005 28.3637 -1.75404 11.5905 1.31334 5.27337 -2.36561e-006 31.6072 -3.20429 6.84013 -4.69137 -9.2266 -27.891 13.5892 3.92723 126.572 -26.4641 -69.8328 -3.65952e-006 28.01 1.8232 159.188 -89.1295 155.801 -3.82346e-006 24.3992 -2.49173 -135.852 56.8526 -157.646 27.891 13.5892 3.92714 -108.066 -30.5721 84.5841 -9.84166e-008 28.0098 1.82319 1.96102 -76.5198 -2.12828 -3.81251e-006 24.3992 -2.49173 127.191 62.329 156.763 6.09085e-007 2.15392 7.10543e-015 -2.01142 -1.48976 -0.150443 2.16067e-007 62.0609 0.472498 -7.08666e-008 -9.64721e-011 2.25549e-009 22.6695 9.65299 -5.3622 -155.634 7.22931 56.5478 -7.07679e-007 25.813 1.69098 179.879 -65.4585 179.581 1.1839e-005 28.5636 -0.966314 32.2221 15.5804 -94.4002 -22.6695 9.65298 -5.3622 135.096 3.38992 -61.0994 1.01544e-006 25.813 1.69101 -179.878 -73.8674 -179.498 -4.46957e-006 28.5636 -0.966302 -32.7139 34.3875 99.4888 -5.58799e-008 23.1438 -0.944992 12.2283 0.537101 -29.9051 9.24545e-008 20.8625 4.12737 7.11299 11.3662 -29.0495 -7.52174e-006 7.55201 -7.582 1.12885e-005 -22.7879 -1.17935e-005 
